<?xml version="1.0"?>
<svg width="178" height="150" xmlns="http://www.w3.org/2000/svg" xmlns:svg="http://www.w3.org/2000/svg">

 <metadata id="metadata8318">image/svg+xml</metadata>
 <g>
  <title>Layer 1</title>
  <g id="layer1">
   <rect fill="none" y="10" x="244" height="1" width="1" id="rect3725"/>
   <g id="g6033">
    <path fill="#0066ff" fill-rule="nonzero" id="path12151" d="m174.000003,25.999999l0,1.25l0,29.34375l0,47.40625l1,0l0,-78l-1,0zm2,0l0,78l2,0l0,-78l-2,0zm-3,37c-3,10 -3,8.06339 -3,23l0,18l3,0l0,-41z"/>
    <path fill="#00ccff" fill-rule="evenodd" id="path12155" d="m150.000003,39.999999l4,55.65217l0,8.34783l3,0l0,-64l-3,0l-4,0zm8,0l0,64l4,0l0,-64l-4,0zm5,0l0,64l1,0l0,-64l-1,0zm2,0l0,64l2,0l0,-8.34783l4,-55.65217l-4,0l-2,0z"/>
    <path fill="#00d400" fill-rule="evenodd" id="path12157" d="m110.000003,46.999999l0,57l1,0l0,-57l-1,0zm2,0l0,57l1,0l0,-57l-1,0zm4,0l0,57l2,0l0,-57l-2,0zm5,0l0,57l1,0l0,-57l-1,0zm4,0l0,57l1,0l0,-57l-1,0zm4,0l0,57l2,0l0,-57l-2,0zm3,0l0,57l2,0l0,-57l-2,0zm3,0l0,57l3,0l0,-56.4375c-0.33707,-0.16585 -0.68515,-0.31888 -1.03125,-0.46875c0.002,-0.0306 -0.002,-0.0632 0,-0.0937l-1.96875,0l0,-0.00005zm-26,0.0937c-0.33724,0.14652 -0.67134,0.30704 -1,0.46875l0,56.4375l1,0l0,-56.90625zm-4,2.25c-0.69601,0.48378 -1.36246,1.00762 -2,1.5625l0,53.09375l2,0l0,-54.65625zm36,0l0,54.65625l1,0l0,-53.9375c-0.32365,-0.25126 -0.66298,-0.4845 -1,-0.71875zm2,1.5625l0,53.09375l2,0l0,-51.125c-0.62899,-0.69721 -1.29148,-1.3521 -2,-1.96875zm-43,3.125c-0.35282,0.44603 -0.68007,0.90323 -1,1.375l0,48.59375l1,0l0,-49.96875zm46,0l0,49.96875l3,0l0,-44.96875c-0.79731,-1.79981 -1.79497,-3.47659 -3,-5zm4,7.6875l0,42.28125l1,0l0,-35.5c0,-2.35858 -0.35465,-4.63934 -1,-6.78125zm-54.03125,0.0625c-0.5928,1.98873 -0.92874,4.10406 -0.96875,6.28125c-0.003,0.14674 0,0.29008 0,0.4375l0.0312,35.5l0.96875,0l-0.0312,-42.21875z"/>
    <text font-style="normal" font-weight="normal" font-size="31.596498px" font-family="&#x27;Arial Narrow'" fill="#333333" transform="translate(65.74220275878906,151.1541290283203) scale(0.9286441802978516,1.076838731765747) " id="text12163" y="-25.213469" x="-71.390884" xml:space="preserve">
     <tspan font-size="22.050913px" fill="#333333" y="-25.213469" x="-71.390884" id="tspan12165">OPEN BEAUTY FACTS</tspan>
    </text>
    <path fill="#ff0000" fill-rule="evenodd" id="path12167" d="m12.424253,12.249999c-3.13312,-0.0516 -5.63149,3.14302 -6.42425,12.75l0,22.71875l22,0l0,-22.71875c-3.44249,-3.55006 -10.3539,-12.66396 -15.57575,-12.75z"/>
    <path fill="#ff0000" fill-rule="nonzero" id="path12169" d="m19.000003,42.175669l0,61.82433l2,0l0,-61.82433l-2,0zm-4,0.82433l0,61l3,0l0,-61l-3,0zm-15,4.12162l0,56.87838l2,0l0,-56.87838l-2,0zm3,0l0,56.87838l1,0l0,-56.87838l-1,0zm5,0l0,56.87838l1,0l0,-56.87838l-1,0zm3,0l0,56.87838l1,0l0,-56.87838l-1,0zm11,0l0,56.87838l3,0l0,-56.87838l-3,0zm4,0l0,56.87838l3,0l0,-56.87838l-3,0zm4,0l0,56.87838l2,0l0,-56.87838l-2,0zm3,0l0,56.87838l1,0l0,-56.87838l-1,0z"/>
    <path fill="#ffcc00" fill-rule="nonzero" id="path12171" d="m37.000003,59.999999l0,44l2,0l0,-44l-2,0zm3,0l0,44l1,0l0,-44l-1,0zm4,0l0,44l1,0l0,-44l-1,0zm2,0l0,44l3,0l0,-44l-3,0zm6,0l0,44l2,0l0,-44l-2,0zm3,0l0,44l1,0l0,-44l-1,0zm4,0l0.0312,44l1.9688,0l-0.0312,-44l-1.9688,0zm5,0l0,44l1,0l0,-44l-1,0zm2,0l0,44l1,0l0,-44l-1,0zm4,0l0,44l3,0l0,-44l-3,0zm4,0l0,44l2,0l0,-44l-2,0zm3,0l0,44l1,0l0,-44l-1,0zm4,0l0,44l3,0l0,-44l-3,0zm4,0l0,44l2,0l0,-44l-2,0zm3,0l0,44l1,0l0,-44l-1,0zm2,0l0,44l2,0l0,-44l-2,0z"/>
    <circle fill="#00ccff" id="path12173" cx="159.092324" cy="44.276359" r="0.948851"/>
    <path fill="#0066ff" fill-rule="nonzero" id="path12175" d="m170.000043,126.999999l0,5c2.66569,0 5.33424,0 7.99992,0l0,-5c-2.66568,0 -5.33423,0 -7.99983,0l-0.00009,0z"/>
    <path fill="#00ccff" fill-rule="nonzero" id="path12177" d="m154.000013,126.999999l0,5c4.33407,0 8.6659,0 12.99997,0l0,-5c-4.33407,0 -8.6659,0 -12.99997,0z"/>
    <path fill="#00d400" fill-rule="nonzero" id="path12179" d="m95.000003,126.999999l0,5c18.6596,0 37.34041,0 56.00004,0l0,-5c-18.65963,0 -37.34044,0 -56.00004,0z"/>
    <path fill="#ffcc00" fill-rule="nonzero" id="path12181" d="m37.000003,126.999999l0,5c18.33338,0 36.66662,0 55,0l0,-5c-18.33338,0 -36.66662,0 -55,0z"/>
    <path fill="#ff0000" fill-rule="nonzero" id="path12183" d="m0.000003,126.999999l0,5c11.33371,0 22.6663,0 34,0l0,-5c-11.3337,0 -22.66629,0 -34,0z"/>
    <rect fill="#ff0000" fill-rule="evenodd" y="44.718749" x="2.999943" height="3" width="1" id="rect12187"/>
    <path fill="#ff0000" fill-rule="evenodd" id="path12191" d="m3.000003,42.999999l14,0l14,0l0,5l-14,0l-14,0l0,-5z"/>
    <path fill="#ff0000" fill-rule="evenodd" d="m0.000003,46.999999l17,0l17,0l0,1l-17,0l-17,0l0,-1z" id="path12195"/>
    <path fill="#ffffff" fill-rule="evenodd" d="m11.000003,12.499999c-0.71672,0.26072 -1.39729,0.73547 -2,1.5l0,29l2,0l0,-30.5z" id="rect12197"/>
    <path fill="#ffcc00" fill-rule="evenodd" id="path12199" d="m45.250003,39.999999c-4.5705,0 -8.25,3.6795 -8.25,8.25l0,10.75l55,0l0,-10.75c0,-4.5705 -3.6795,-8.25 -8.25,-8.25l-38.5,0z"/>
    <path fill="#00d400" fill-rule="evenodd" id="path12201" d="m128.343753,12.062499c-1.78342,0.0471 -3.79985,0.24743 -5.34375,0.4375c-6.36567,0.78364 -4.65625,-0.0104 -18.65625,4.65625c-1.47573,0.49191 -1.39133,5.38317 0,4.6875c4.38351,-2.19176 9.78935,-2.31915 14.78125,-1.84375c-0.4951,1.01323 -0.78125,2.24737 -0.78125,3.5625l0,3.65625c-1.91045,0.86858 -3.4453,2.46044 -4.1875,4.4375c-3.01974,1.13363 -5.15625,4.04346 -5.15625,7.46875l0,6.875l28,0l0,-6.875c0,-3.42529 -2.13651,-6.33512 -5.15625,-7.46875c-0.7422,-1.97706 -2.27705,-3.56892 -4.1875,-4.4375l0,-3.65625c0,-0.83218 -0.13356,-1.64737 -0.34375,-2.375c2.11458,0.36458 3.86458,0.65625 5.03125,0.65625c3.1111,0 2.6943,-7.78819 0,-9.34375c-0.65577,-0.37861 -2.21658,-0.48464 -4,-0.4375z"/>
    <rect fill="none" id="rect12203" width="5" height="5" x="109.999943" y="8.999999"/>
    <rect fill="none" y="8.999999" x="109.999943" height="5" width="5" id="rect12205"/>
    <path fill="#0066ff" fill-rule="evenodd" d="m175.000003,11.999999c-0.554,0 -1,0.446 -1,1l0,3c0,0.554 0.446,1 1,1l0,-4l1,0l0,4l1,0c0.554,0 1,-0.446 1,-1l0,-3c0,-0.554 -0.446,-1 -1,-1l-2,0z" id="rect12207"/>
    <g fill="#0066ff" transform="matrix(1.1666667,0,0,1,522.59113,-120.15413) " id="g12209">
     <path fill="#0066ff" fill-rule="evenodd" d="m-305.649533,133.154129l6,0l0,1l-6,0l0,-1z" id="path12211"/>
     <path fill="#0066ff" fill-rule="evenodd" id="path12213" d="m-305.649533,135.154129l6,0l0,1l-6,0l0,-1z"/>
     <path fill="#0066ff" fill-rule="evenodd" d="m-305.649533,137.154129l6,0l0,1l-6,0l0,-1z" id="path12215"/>
     <path fill="#0066ff" fill-rule="evenodd" id="path12217" d="m-305.649533,139.154129l6,0l0,1l-6,0l0,-1z"/>
     <path fill="#0066ff" fill-rule="evenodd" d="m-305.649533,141.154129l6,0l0,1l-6,0l0,-1z" id="path12219"/>
     <path fill="#0066ff" fill-rule="evenodd" id="path12221" d="m-305.649533,143.154129l6,0l0,1l-6,0l0,-1z"/>
     <path fill="#0066ff" fill-rule="evenodd" d="m-305.649533,145.154129l6,0l0,1l-6,0l0,-1z" id="path12223"/>
    </g>
    <path fill="#0066ff" fill-rule="evenodd" d="m174.000003,14.999999l0,1.03125l0,6.25l0,4.71875l1,0l0,-12l-1,0zm2,0l0,12l2,0l0,-12l-2,0z" id="path12225"/>
    <rect fill="none" y="8.999999" x="109.999943" height="5" width="5" id="rect12231"/>
    <rect fill="none" id="rect12233" width="5" height="5" x="109.999943" y="8.999999"/>
   </g>
  </g>
 </g>
</svg>