<?xml version="1.0" encoding="UTF-8"?><svg id="a" xmlns="http://www.w3.org/2000/svg" viewBox="0 0 450.5 590.23"><defs><style>.b{fill:#00641e;}.c{fill:#00961e;}.d{fill:#fff;}.e{fill:#ff8c14;}.f{fill:#ff8714;}.g{fill:#8c3c00;}</style></defs><rect x="0" width="450.5" height="590.23"/><g><g><g><path class="e" d="M176.13,171.7c0-27.11,21.97-49.08,49.08-49.08s49.08,21.97,49.08,49.08h-98.16Z"/><circle class="g" cx="241.83" cy="140" r="2.7"/><circle class="g" cx="254.98" cy="152.07" r="2.7"/><circle class="g" cx="240.11" cy="155.02" r="2.7"/></g><path class="d" d="M201.41,214.6l-8.72,20.82,11.48,4.81,8.8-21c3.92,1.01,8.02,1.55,12.25,1.55,27.06,0,49.08-22.02,49.08-49.08h-12.44c0,20.2-16.44,36.64-36.64,36.64s-36.64-16.44-36.64-36.64h-12.44c0,18.43,10.22,34.51,25.28,42.9Z"/><path class="b" d="M245.51,97.97c-9.65,0-18.04,5.38-22.35,13.3,3.32,3.09,5.83,7.05,7.13,11.52,11.23-2.52,19.66-12.45,19.86-24.39-1.5-.28-3.05-.43-4.63-.43Z"/><path class="c" d="M205.84,104.44c-1.91,0-3.77,.22-5.56,.62,3.07,10.61,12.85,18.37,24.45,18.37,1.91,0,3.77-.22,5.56-.62-3.07-10.61-12.85-18.37-24.45-18.37Z"/></g><g><path class="d" d="M147.5,423.92c-3.73,0-6.98,.68-9.73,2.04-2.76,1.36-4.87,3.33-6.35,5.91-1.48,2.58-2.22,5.73-2.22,9.46v1.51h-8.53v10.4h8.53v37.95h11.64v-37.95h10.75v-10.4h-10.75v-1.51c0-2.49,.71-4.31,2.13-5.47,1.42-1.16,3.44-1.73,6.04-1.73,.41,0,.87,.02,1.38,.04,.5,.03,1.05,.1,1.64,.22v-10.04c-.59-.12-1.32-.22-2.18-.31-.86-.09-1.64-.13-2.35-.13Z"/><path class="d" d="M186.06,443.96c-3.02-1.45-6.52-2.18-10.49-2.18-3.26,0-6.28,.53-9.06,1.6-2.79,1.07-5.2,2.53-7.24,4.4-2.04,1.87-3.54,4.07-4.49,6.62l9.51,4.62c.89-2.13,2.3-3.88,4.22-5.24,1.92-1.36,4.13-2.04,6.62-2.04,2.67,0,4.8,.7,6.4,2.09,1.6,1.39,2.4,3.13,2.4,5.2v1.57l-14.31,2.34c-3.79,.59-6.93,1.6-9.42,3.02-2.49,1.42-4.34,3.19-5.55,5.29-1.22,2.1-1.82,4.49-1.82,7.15s.68,5.23,2.04,7.33c1.36,2.1,3.3,3.72,5.82,4.84,2.52,1.12,5.47,1.69,8.84,1.69,2.67,0,5.08-.36,7.24-1.07,2.16-.71,4.12-1.78,5.87-3.2,.71-.58,1.37-1.22,2-1.9v5.1h11.02v-32.17c0-3.38-.84-6.37-2.53-8.98-1.69-2.61-4.04-4.64-7.06-6.09Zm-3.64,33.55c-1.01,1.84-2.44,3.27-4.31,4.31-1.87,1.04-4.01,1.56-6.44,1.56-1.9,0-3.48-.49-4.75-1.47-1.27-.98-1.91-2.3-1.91-3.95s.56-3.1,1.69-4.13c1.12-1.04,2.84-1.76,5.15-2.18l12.09-2.15v2.06c0,2.13-.5,4.12-1.51,5.95Z"/><path class="d" d="M220.34,454.36c1.98-1.21,4.25-1.82,6.8-1.82,2.72,0,5.14,.73,7.24,2.18,2.1,1.45,3.6,3.42,4.49,5.91l10.22-4.53c-.95-2.84-2.5-5.33-4.67-7.47-2.16-2.13-4.73-3.81-7.69-5.02-2.96-1.21-6.16-1.82-9.6-1.82-4.86,0-9.2,1.1-13.02,3.29-3.82,2.19-6.83,5.19-9.02,8.98-2.19,3.79-3.29,8.09-3.29,12.89s1.11,9.11,3.33,12.93c2.22,3.82,5.23,6.84,9.02,9.06,3.79,2.22,8.12,3.33,12.97,3.33,3.49,0,6.72-.61,9.69-1.82,2.96-1.21,5.51-2.9,7.64-5.07,2.13-2.16,3.67-4.61,4.62-7.33l-10.22-4.62c-.95,2.49-2.44,4.47-4.49,5.95-2.04,1.48-4.46,2.22-7.24,2.22-2.55,0-4.81-.62-6.8-1.87-1.99-1.24-3.54-2.96-4.67-5.15-1.13-2.19-1.69-4.71-1.69-7.55s.56-5.29,1.69-7.51c1.12-2.22,2.68-3.94,4.67-5.15Z"/><path class="d" d="M279.83,481.51c-1.9,0-3.45-.3-4.67-.89-1.22-.59-2.1-1.45-2.67-2.58-.56-1.12-.84-2.49-.84-4.09v-20.71h11.11v-10.4h-11.11v-11.02h-11.73v3.73c0,2.37-.64,4.18-1.91,5.42-1.27,1.24-3.1,1.87-5.47,1.87h-.89v10.4h8.26v21.33c0,5.45,1.51,9.67,4.53,12.66,3.02,2.99,7.26,4.49,12.71,4.49,.89,0,1.87-.06,2.93-.18,1.07-.12,2.01-.24,2.84-.36v-9.95c-.53,.06-1.08,.12-1.64,.18-.56,.06-1.05,.09-1.47,.09Z"/><path class="d" d="M312.5,463.47l-7.73-2.31c-1.13-.36-2.12-.74-2.98-1.16-.86-.41-1.53-.95-2-1.6-.47-.65-.71-1.39-.71-2.22,0-1.48,.56-2.65,1.69-3.51,1.12-.86,2.67-1.29,4.62-1.29,2.43,0,4.62,.64,6.58,1.91,1.95,1.27,3.35,3.01,4.18,5.2l8.89-4.18c-1.48-3.97-3.97-7.05-7.47-9.24-3.5-2.19-7.52-3.29-12.09-3.29-3.5,0-6.59,.62-9.29,1.87-2.7,1.24-4.8,2.98-6.31,5.2-1.51,2.22-2.27,4.81-2.27,7.78,0,3.32,1.05,6.21,3.15,8.66,2.1,2.46,5.17,4.25,9.2,5.38l7.91,2.22c1.07,.3,2.01,.67,2.84,1.11,.83,.44,1.5,.98,2,1.6,.5,.62,.76,1.41,.76,2.35,0,1.54-.62,2.79-1.87,3.73-1.24,.95-2.9,1.42-4.98,1.42-2.73,0-5.2-.77-7.42-2.31-2.22-1.54-3.95-3.67-5.2-6.4l-8.8,4.18c1.48,4.21,4.13,7.54,7.95,10,3.82,2.46,8.31,3.69,13.46,3.69,3.67,0,6.87-.62,9.6-1.87,2.72-1.24,4.86-2.98,6.4-5.2,1.54-2.22,2.31-4.78,2.31-7.69,0-3.44-1.08-6.34-3.24-8.71-2.16-2.37-5.23-4.15-9.2-5.33Z"/></g><g><path class="d" d="M158.41,256.54c-3.85-2.19-8.18-3.29-12.97-3.29s-9.04,1.1-12.89,3.29c-3.85,2.19-6.93,5.19-9.24,8.98-2.31,3.79-3.47,8.12-3.47,12.97s1.16,9.18,3.47,12.97c2.31,3.79,5.41,6.78,9.29,8.98,3.88,2.19,8.16,3.29,12.84,3.29s9.03-1.1,12.89-3.29c3.85-2.19,6.93-5.18,9.24-8.98,2.31-3.79,3.47-8.12,3.47-12.97s-1.14-9.26-3.42-13.02c-2.28-3.76-5.35-6.74-9.2-8.93Zm-1.29,29.46c-1.16,2.22-2.73,3.95-4.71,5.2-1.99,1.24-4.31,1.87-6.98,1.87s-4.92-.62-6.93-1.87c-2.02-1.24-3.6-2.98-4.75-5.2-1.16-2.22-1.73-4.72-1.73-7.51s.58-5.27,1.73-7.47c1.16-2.19,2.74-3.91,4.75-5.15,2.01-1.24,4.32-1.87,6.93-1.87s4.99,.62,6.98,1.87c1.98,1.24,3.55,2.96,4.71,5.15,1.16,2.19,1.73,4.68,1.73,7.47s-.58,5.29-1.73,7.51Z"/><path class="d" d="M216.23,256.63c-3.67-2.25-7.79-3.38-12.35-3.38-3.73,0-7.02,.73-9.86,2.18-2.28,1.16-4.17,2.7-5.69,4.61v-5.72h-11.02v66.12h11.73v-22.42c1.43,1.52,3.13,2.74,5.11,3.67,2.93,1.36,6.15,2.04,9.64,2.04,4.68,0,8.86-1.11,12.53-3.33,3.67-2.22,6.58-5.26,8.71-9.11,2.13-3.85,3.2-8.12,3.2-12.8s-1.08-9.01-3.24-12.8c-2.16-3.79-5.08-6.81-8.75-9.06Zm-1.87,29.42c-1.19,2.19-2.8,3.91-4.84,5.15-2.04,1.24-4.4,1.87-7.07,1.87s-4.84-.62-6.89-1.87c-2.04-1.24-3.64-2.96-4.8-5.15-1.16-2.19-1.73-4.71-1.73-7.55s.58-5.27,1.73-7.47c1.16-2.19,2.75-3.91,4.8-5.15,2.04-1.24,4.34-1.87,6.89-1.87s5.02,.62,7.07,1.87c2.04,1.24,3.66,2.96,4.84,5.15,1.18,2.19,1.78,4.68,1.78,7.47s-.59,5.36-1.78,7.55Z"/><path class="d" d="M273.82,260.28c-2.01-2.19-4.46-3.91-7.33-5.15-2.87-1.24-6.21-1.87-10-1.87-4.56,0-8.65,1.1-12.26,3.29-3.61,2.19-6.49,5.17-8.62,8.93-2.13,3.76-3.2,8.07-3.2,12.93s1.04,8.95,3.11,12.8c2.07,3.85,4.99,6.9,8.75,9.15,3.76,2.25,8.13,3.38,13.11,3.38,3.26,0,6.28-.5,9.06-1.51,2.78-1.01,5.18-2.4,7.2-4.18,2.01-1.78,3.5-3.82,4.44-6.13l-9.42-4.62c-1.07,1.9-2.53,3.41-4.4,4.53-1.87,1.13-4.13,1.69-6.8,1.69s-5.02-.62-7.07-1.87c-2.04-1.24-3.59-3.01-4.62-5.29-.62-1.37-1.01-2.87-1.18-4.49h34.81c.24-.71,.4-1.5,.49-2.35,.09-.86,.13-1.73,.13-2.62,0-3.26-.53-6.29-1.6-9.11-1.07-2.81-2.61-5.32-4.62-7.51Zm-28.98,12.62c.2-1.02,.48-1.97,.85-2.84,.98-2.31,2.41-4.09,4.31-5.33,1.9-1.24,4.06-1.87,6.49-1.87s4.72,.62,6.53,1.87c1.81,1.24,3.11,2.93,3.91,5.07,.37,.97,.58,2.01,.65,3.11h-22.74Z"/><path class="d" d="M320.64,255.57c-2.76-1.54-5.91-2.31-9.46-2.31s-6.44,.76-9.02,2.27c-1.99,1.17-3.54,2.75-4.67,4.75v-5.95h-11.02v48.35h11.73v-28.35c0-2.13,.41-3.97,1.24-5.51,.83-1.54,1.98-2.72,3.47-3.55,1.48-.83,3.17-1.24,5.07-1.24s3.58,.42,5.07,1.24c1.48,.83,2.64,2.01,3.47,3.55,.83,1.54,1.24,3.38,1.24,5.51v28.35h11.64v-31.1c0-3.61-.77-6.8-2.31-9.55-1.54-2.75-3.69-4.9-6.44-6.44Z"/></g><g><rect class="f" x="100.14" y="321.98" width="250.13" height="89.13" rx="14.81" ry="14.81" transform="translate(-31.09 21.02) rotate(-5)"/><g><path class="d" d="M121.66,403.19l-4.81-54.96,37.63-3.29,.87,9.96-26.19,2.29,1.22,13.94,22.5-1.97,.87,9.96-22.5,1.97,1.85,21.1-11.44,1Z"/><path class="d" d="M190.58,398.05c-4.13,.36-8.03-.02-11.7-1.13-3.67-1.12-6.93-2.85-9.79-5.2-2.86-2.35-5.17-5.18-6.95-8.5-1.78-3.31-2.84-6.99-3.19-11.02-.35-4.03,.05-7.83,1.2-11.4,1.15-3.57,2.93-6.75,5.34-9.54,2.41-2.79,5.32-5.05,8.74-6.79,3.42-1.74,7.21-2.79,11.4-3.15,4.18-.37,8.1,0,11.77,1.13,3.67,1.12,6.93,2.84,9.78,5.17,2.85,2.33,5.16,5.15,6.91,8.46,1.75,3.32,2.8,6.99,3.16,11.02,.35,4.03-.06,7.84-1.23,11.41-1.17,3.57-2.96,6.76-5.37,9.58-2.41,2.81-5.32,5.09-8.73,6.82-3.42,1.74-7.19,2.79-11.32,3.15Zm-.9-10.33c2.51-.22,4.79-.87,6.86-1.94,2.06-1.07,3.83-2.48,5.32-4.22,1.48-1.74,2.57-3.76,3.26-6.05,.69-2.29,.92-4.76,.69-7.42-.23-2.66-.89-5.04-1.96-7.15-1.08-2.11-2.5-3.91-4.26-5.39-1.77-1.48-3.75-2.56-5.97-3.23-2.21-.67-4.58-.9-7.09-.68-2.51,.22-4.79,.85-6.86,1.9-2.06,1.05-3.84,2.45-5.32,4.22-1.48,1.76-2.57,3.78-3.26,6.05-.69,2.27-.92,4.73-.69,7.38,.23,2.66,.89,5.05,1.97,7.19,1.08,2.14,2.5,3.93,4.26,5.39,1.76,1.46,3.75,2.53,5.97,3.23,2.22,.7,4.58,.94,7.09,.72Z"/><path class="d" d="M253.29,392.56c-4.13,.36-8.03-.02-11.7-1.13-3.67-1.12-6.93-2.85-9.79-5.2-2.86-2.35-5.17-5.18-6.95-8.5-1.78-3.31-2.84-6.99-3.19-11.02-.35-4.03,.05-7.83,1.2-11.4,1.15-3.57,2.93-6.75,5.34-9.54,2.41-2.79,5.32-5.05,8.74-6.79,3.42-1.74,7.21-2.79,11.4-3.15,4.18-.37,8.1,0,11.77,1.13,3.67,1.12,6.93,2.84,9.78,5.17,2.85,2.33,5.16,5.15,6.91,8.46,1.75,3.32,2.8,6.99,3.16,11.02,.35,4.03-.06,7.84-1.23,11.41-1.17,3.57-2.96,6.76-5.37,9.58-2.41,2.81-5.32,5.09-8.73,6.82-3.42,1.74-7.19,2.79-11.32,3.15Zm-.9-10.33c2.51-.22,4.79-.87,6.86-1.94,2.06-1.07,3.83-2.48,5.32-4.22,1.48-1.74,2.57-3.76,3.26-6.05,.69-2.29,.92-4.76,.69-7.42-.23-2.66-.89-5.04-1.96-7.15-1.08-2.11-2.5-3.91-4.26-5.39-1.77-1.48-3.75-2.56-5.97-3.23-2.21-.67-4.58-.9-7.09-.68-2.51,.22-4.79,.85-6.86,1.9-2.06,1.05-3.84,2.45-5.32,4.22-1.48,1.76-2.57,3.78-3.26,6.05-.69,2.27-.92,4.73-.69,7.38,.23,2.66,.89,5.05,1.97,7.19,1.08,2.14,2.5,3.93,4.26,5.39,1.76,1.46,3.75,2.53,5.97,3.23,2.22,.7,4.58,.94,7.09,.72Z"/><path class="d" d="M289.07,388.54l-4.81-54.96,17.93-1.57c5.95-.52,11.22,.21,15.8,2.19,4.58,1.98,8.26,4.93,11.03,8.85,2.77,3.92,4.39,8.54,4.85,13.85,.46,5.31-.33,10.15-2.37,14.52-2.05,4.37-5.16,7.92-9.33,10.67-4.17,2.74-9.23,4.38-15.18,4.9l-17.93,1.57Zm10.56-10.96l6.79-.59c3.59-.31,6.62-1.31,9.1-2.99,2.48-1.68,4.33-3.9,5.55-6.66,1.22-2.76,1.68-5.91,1.37-9.45-.31-3.59-1.31-6.62-2.99-9.11-1.68-2.48-3.88-4.32-6.62-5.52-2.73-1.2-5.89-1.64-9.48-1.33l-6.79,.59,3.07,35.04Z"/></g></g></g></svg>